<?xml version="1.0" standalone="no"?>
<!DOCTYPE svg PUBLIC "-//W3C//DTD SVG 20010904//EN"
 "http://www.w3.org/TR/2001/REC-SVG-20010904/DTD/svg10.dtd">
<svg version="1.0" xmlns="http://www.w3.org/2000/svg"
 width="297.000000pt" height="297.000000pt" viewBox="0 0 297.000000 297.000000"
 preserveAspectRatio="xMidYMid meet">
<metadata>
Created by potrace 1.11, written by Peter Selinger 2001-2013
</metadata>
<g transform="translate(0.000000,297.000000) scale(0.100000,-0.100000)"
fill="#000000" stroke="none">
<path d="M2830 2750 c-19 -5 -60 -11 -90 -15 -30 -3 -64 -8 -75 -10 -69 -14
-354 -37 -630 -50 -77 -4 -171 -9 -210 -11 -160 -7 -393 -16 -440 -17 -67 0
-382 13 -420 18 -16 2 -77 6 -135 10 -58 4 -116 8 -130 10 -14 2 -68 7 -120
10 -52 3 -122 7 -155 10 -72 6 -208 14 -325 20 l-85 4 1 -36 c3 -64 15 -157
25 -203 6 -25 12 -52 14 -60 19 -86 84 -226 126 -268 84 -86 286 -135 449
-111 25 4 72 10 104 14 63 7 270 66 317 90 62 32 68 -1 10 -51 -67 -59 -90
-134 -65 -206 12 -35 12 -38 -6 -38 -10 0 -31 5 -45 12 -26 12 -26 12 -22 105
l5 93 -37 -6 c-20 -3 -76 -15 -126 -26 -122 -27 -129 -28 -217 -29 l-78 -2 24
-41 c14 -22 43 -72 65 -111 46 -80 79 -105 237 -177 106 -49 191 -75 259 -79
32 -2 51 4 87 29 49 33 88 77 88 96 0 7 -18 25 -40 42 -22 16 -40 35 -40 42 0
7 5 10 10 7 15 -9 18 7 24 128 4 60 18 170 32 245 14 76 28 153 31 172 5 36
37 79 50 67 12 -13 0 -363 -16 -444 -6 -29 -13 -88 -16 -130 -4 -43 -8 -83
-10 -90 -6 -19 37 -75 81 -106 36 -25 49 -28 120 -29 91 -1 113 6 172 56 37
30 46 34 62 24 10 -7 21 -23 25 -35 9 -36 73 -102 110 -112 60 -16 217 14 310
60 74 36 188 137 239 212 20 29 48 67 62 84 42 52 30 61 -78 61 -127 -1 -198
13 -198 39 0 13 9 15 53 10 240 -28 329 -28 418 2 130 43 218 120 281 248 44
89 47 111 51 355 l2 123 -50 2 c-27 1 -66 -2 -85 -7z"/>
<path d="M10 2283 c0 -12 71 -221 99 -293 121 -306 308 -658 525 -990 56 -85
115 -180 131 -210 31 -61 60 -105 88 -135 11 -11 58 -72 105 -135 47 -63 96
-125 108 -136 38 -36 137 -110 173 -129 39 -19 107 -30 115 -17 2 4 -4 48 -15
98 -11 49 -24 109 -29 134 -5 25 -12 56 -14 69 -7 33 -18 139 -18 174 0 15 16
51 38 83 34 50 39 63 39 113 -1 43 -7 66 -28 98 l-26 41 67 -6 c89 -7 152 -7
235 1 l67 7 -34 -45 c-62 -80 -63 -124 -8 -274 24 -64 22 -113 -6 -197 -12
-33 -23 -73 -26 -89 -3 -16 -10 -51 -15 -79 -6 -28 -12 -70 -14 -93 -5 -49 7
-58 64 -48 118 20 276 155 404 344 17 25 72 97 123 160 52 64 112 145 134 181
22 36 55 88 73 115 71 106 164 258 257 418 80 138 177 394 204 542 2 11 8 42
13 70 5 27 8 52 6 54 -2 1 -20 -9 -39 -24 -41 -31 -72 -82 -114 -185 -77 -193
-245 -514 -328 -630 -77 -107 -109 -140 -133 -140 -32 0 -26 17 27 75 72 78
107 136 231 379 122 239 139 281 145 356 6 71 -27 66 -71 -10 -163 -280 -223
-361 -308 -420 -89 -61 -299 -152 -380 -165 -27 -5 -52 -9 -55 -10 -3 -1 -41
-5 -85 -9 -44 -5 -89 -10 -100 -12 -30 -6 -256 -5 -284 1 -14 2 -31 11 -39 19
-13 12 8 14 156 13 94 -1 174 2 178 5 8 9 -12 34 -111 142 -67 73 -80 83 -96
73 -9 -6 -22 -21 -28 -34 -13 -29 -95 -117 -134 -145 -78 -56 -315 2 -542 131
-121 69 -212 164 -269 281 -61 123 -122 217 -146 223 -26 7 -25 -7 6 -95 44
-121 122 -259 189 -333 88 -98 203 -211 313 -307 37 -33 39 -38 20 -38 -14 0
-42 20 -73 51 -47 47 -131 106 -140 98 -9 -10 33 -108 62 -144 18 -22 51 -76
74 -120 23 -44 59 -114 81 -154 21 -42 36 -82 33 -90 -9 -22 -37 14 -82 104
-37 72 -61 111 -175 275 -36 52 -103 160 -148 240 -46 80 -95 163 -110 185
-44 66 -96 174 -149 311 -28 72 -51 135 -51 141 0 6 -28 35 -62 64 -86 74 -98
83 -98 72z"/>
<path d="M1428 893 c-6 -23 1 -45 13 -37 12 7 12 54 0 54 -5 0 -11 -8 -13 -17z"/>
<path d="M1479 908 c-8 -19 -4 -48 7 -48 16 0 19 36 4 45 -5 3 -11 5 -11 3z"/>
<path d="M1536 883 c-11 -11 -6 -23 9 -23 8 0 15 4 15 9 0 13 -16 22 -24 14z"/>
<path d="M1459 708 c-4 -68 1 -101 18 -113 10 -7 19 -12 21 -10 8 8 3 92 -7
118 -13 33 -30 35 -32 5z"/>
<path d="M1413 705 c-6 -7 -8 -18 -3 -26 7 -11 10 -10 15 3 10 24 2 38 -12 23z"/>
<path d="M1526 655 c-3 -8 -1 -15 4 -15 6 0 10 7 10 15 0 8 -2 15 -4 15 -2 0
-6 -7 -10 -15z"/>
</g>
</svg>
